<?xml version="1.0" standalone="yes"?><svg xmlns="http://www.w3.org/2000/svg" viewBox="0 0 385.8 76.05" style="zoom: 1;"><defs><style><![CDATA[.cls-1{fill:#424242;}]]></style></defs><title>DFWro2019_logo</title><g id="Layer_2" data-name="Layer 2"><g id="Layer_1-2" data-name="Layer 1"><path d="M42.16,50.63 L12.62,33.73 A8.45,8.45 0 0 0 1.13,36.78 A8.28,8.28 0 0 0 4.21,48.16 l29.54,16.9 A8.45,8.45 0 0 0 45.24,62 A8.29,8.29 0 0 0 42.16,50.63  Z " transform="translate(0 -4.91)" class="cls-1"></path><path class="cls-1" d="M101.06,33.73,71.52,16.83A8.45,8.45,0,0,0,60,19.88a8.29,8.29,0,0,0,3.08,11.38l29.54,16.9a8.45,8.45,0,0,0,11.49-3A8.29,8.29,0,0,0,101.06,33.73Z" transform="translate(0 -4.91)"></path><path class="cls-1" d="M91.48,50.17,77.7,42.28,63.11,50.63A8.29,8.29,0,0,0,60,62a8.45,8.45,0,0,0,11.49,3.05L95.27,51.48A10.89,10.89,0,0,1,91.48,50.17Z" transform="translate(0 -4.91)"></path><path class="cls-1" d="M13.79,31.72l13.78,7.89,14.59-8.35a8.29,8.29,0,0,0,3.08-11.38,8.45,8.45,0,0,0-11.49-3.05L10,30.41A10.89,10.89,0,0,1,13.79,31.72Z" transform="translate(0 -4.91)"></path><path class="cls-1" d="M138.35,32.17a14.35,14.35,0,0,1-7.3-12.67A14.52,14.52,0,0,1,145.68,4.91,15.33,15.33,0,0,1,151.57,6a12.56,12.56,0,0,1,4.56,3.16l-3,3.05a9.15,9.15,0,0,0-3.26-2.34,10.78,10.78,0,0,0-9.22.46A9.78,9.78,0,0,0,136.86,14a10.62,10.62,0,0,0-1.4,5.46,10.62,10.62,0,0,0,1.4,5.46,9.78,9.78,0,0,0,3.75,3.67,10.43,10.43,0,0,0,5.07,1.28,9.62,9.62,0,0,0,7.17-2.73A7.43,7.43,0,0,0,154.32,25a9.82,9.82,0,0,0,.8-2.81h-9.48v-3.9h13.61a12.84,12.84,0,0,1,.19,2.26,16,16,0,0,1-.81,5.09A10.67,10.67,0,0,1,156,29.91a13.52,13.52,0,0,1-10.33,4.18A14.48,14.48,0,0,1,138.35,32.17Z" transform="translate(0 -4.91)"></path><path class="cls-1" d="M164.48,5.54h8.93A15.63,15.63,0,0,1,181,7.29a12.07,12.07,0,0,1,5,4.94,14.89,14.89,0,0,1,1.74,7.27,14.89,14.89,0,0,1-1.74,7.27,12.07,12.07,0,0,1-5,4.94,15.63,15.63,0,0,1-7.56,1.75h-8.93Zm8.85,23.75a10,10,0,0,0,7.31-2.59,9.63,9.63,0,0,0,2.63-7.2,9.66,9.66,0,0,0-2.63-7.18,9.92,9.92,0,0,0-7.31-2.61h-4.49V29.29Z" transform="translate(0 -4.91)"></path><path class="cls-1" d="M198.56,32.17a14.36,14.36,0,0,1-7.29-12.67,14.36,14.36,0,0,1,7.29-12.67,14.51,14.51,0,0,1,7.33-1.92A15.3,15.3,0,0,1,211.78,6a12.69,12.69,0,0,1,4.57,3.16l-3,3.05a9.11,9.11,0,0,0-3.25-2.34,10.8,10.8,0,0,0-9.23.46A9.76,9.76,0,0,0,197.08,14a10.52,10.52,0,0,0-1.4,5.46,10.52,10.52,0,0,0,1.4,5.46,9.76,9.76,0,0,0,3.74,3.67,10.43,10.43,0,0,0,5.07,1.28,10.26,10.26,0,0,0,4.18-.74,10.39,10.39,0,0,0,3-2A7.41,7.41,0,0,0,214.53,25a9.51,9.51,0,0,0,.8-2.81h-9.48v-3.9h13.62a12.84,12.84,0,0,1,.19,2.26,15.74,15.74,0,0,1-.82,5.09,10.65,10.65,0,0,1-2.61,4.23,13.54,13.54,0,0,1-10.34,4.18A14.51,14.51,0,0,1,198.56,32.17Z" transform="translate(0 -4.91)"></path><path class="cls-1" d="M233.82,5.54h8.93a15.63,15.63,0,0,1,7.56,1.75,12.15,12.15,0,0,1,5,4.94A15,15,0,0,1,257,19.5a15,15,0,0,1-1.73,7.27,12.15,12.15,0,0,1-5,4.94,15.63,15.63,0,0,1-7.56,1.75h-8.93Zm8.85,23.75A10,10,0,0,0,250,26.7a9.63,9.63,0,0,0,2.63-7.2A9.66,9.66,0,0,0,250,12.32a9.92,9.92,0,0,0-7.31-2.61h-4.48V29.29Z" transform="translate(0 -4.91)"></path><path class="cls-1" d="M264.57,32.72A9.58,9.58,0,0,1,260.94,29a11.12,11.12,0,0,1-1.31-5.4,11.38,11.38,0,0,1,1.27-5.29,10,10,0,0,1,3.53-3.88A9.38,9.38,0,0,1,269.58,13a10,10,0,0,1,5.21,1.32,8.82,8.82,0,0,1,3.35,3.63,11.41,11.41,0,0,1,1.15,5.19,9.64,9.64,0,0,1-.12,1.36H263.92a6.09,6.09,0,0,0,2,4.27,6,6,0,0,0,4,1.5,5.89,5.89,0,0,0,3.18-.83,6.18,6.18,0,0,0,2.16-2.29l3.63,1.72a10.65,10.65,0,0,1-3.67,3.86,10,10,0,0,1-5.42,1.41A10.12,10.12,0,0,1,264.57,32.72Zm10.35-11.54a4.91,4.91,0,0,0-.66-2.09,4.73,4.73,0,0,0-1.78-1.74,5.69,5.69,0,0,0-2.9-.7,5.15,5.15,0,0,0-3.49,1.23,6.35,6.35,0,0,0-2,3.3Z" transform="translate(0 -4.91)"></path><path class="cls-1" d="M280.58,13.57h4.79l5.5,14.35H291l5.62-14.35h4.68l-8.27,19.89h-4.29Z" transform="translate(0 -4.91)"></path><path class="cls-1" d="M304.8,5.54h17V9.71h-12.6v8h11.35v4.13H309.16V33.46H304.8Z" transform="translate(0 -4.91)"></path><path class="cls-1" d="M328.37,32.72A9.58,9.58,0,0,1,324.74,29a11.12,11.12,0,0,1-1.3-5.4,11.26,11.26,0,0,1,1.27-5.29,10,10,0,0,1,3.52-3.88A9.4,9.4,0,0,1,333.38,13a10,10,0,0,1,5.21,1.32,8.69,8.69,0,0,1,3.35,3.63,11.41,11.41,0,0,1,1.15,5.19,9.43,9.43,0,0,1-.11,1.36H327.73a5.9,5.9,0,0,0,6,5.77,5.84,5.84,0,0,0,3.18-.83,6.29,6.29,0,0,0,2.17-2.29l3.62,1.72A10.54,10.54,0,0,1,339,32.68a10.06,10.06,0,0,1-5.42,1.41A10.18,10.18,0,0,1,328.37,32.72Zm10.36-11.54a5.07,5.07,0,0,0-.67-2.09,4.77,4.77,0,0,0-1.77-1.74,5.72,5.72,0,0,0-2.91-.7,5.15,5.15,0,0,0-3.49,1.23,6.41,6.41,0,0,0-2,3.3Z" transform="translate(0 -4.91)"></path><path class="cls-1" d="M348.82,32.58a8.16,8.16,0,0,1-3.08-3.84l3.83-1.67a5.1,5.1,0,0,0,4.87,3.19,5.76,5.76,0,0,0,2.69-.56,1.81,1.81,0,0,0,1.09-1.7,1.94,1.94,0,0,0-.93-1.71,9.47,9.47,0,0,0-2.89-1.1L352,24.61a8.58,8.58,0,0,1-3.94-2.07,4.94,4.94,0,0,1-1.56-3.74,4.86,4.86,0,0,1,1-3.08,6.61,6.61,0,0,1,2.79-2.05,10,10,0,0,1,3.82-.72A10.29,10.29,0,0,1,359,14.06a6.51,6.51,0,0,1,3,3.22l-3.74,1.64a4.18,4.18,0,0,0-4.13-2.31,4.61,4.61,0,0,0-2.42.59,1.73,1.73,0,0,0-.23,3,6.29,6.29,0,0,0,2.18,1l2.92.74a9.38,9.38,0,0,1,4.43,2.24,5,5,0,0,1,1.5,3.69,5.36,5.36,0,0,1-1.07,3.29,7,7,0,0,1-2.95,2.21,10.59,10.59,0,0,1-4.13.78A9.73,9.73,0,0,1,348.82,32.58Z" transform="translate(0 -4.91)"></path><path class="cls-1" d="M371.76,33.34a5.32,5.32,0,0,1-1.91-1.13,6.13,6.13,0,0,1-1.68-4.56V17.35H364.7V13.57h3.47V8h4.29v5.61h4.84v3.78h-4.84v9.36a3.31,3.31,0,0,0,.62,2.27,2.39,2.39,0,0,0,2,.78,3.51,3.51,0,0,0,1.17-.18,4.92,4.92,0,0,0,1.09-.56v4.17a7.46,7.46,0,0,1-3.12.58A7.08,7.08,0,0,1,371.76,33.34Z" transform="translate(0 -4.91)"></path><path class="cls-1" d="M129.92,52.34h4.88l4.33,18,.46,2.41h.24l.62-2.41,5.58-18h4.37l5.3,18,.62,2.38h.24l.47-2.38,4.33-18h4.87l-7.37,27.92h-4.64l-5.31-18.41-.58-2.49h-.23l-.67,2.49-5.54,18.41h-4.52Z" transform="translate(0 -4.91)"></path><path class="cls-1" d="M168.22,60.37h4.09V63.3h.2a5.5,5.5,0,0,1,2.3-2.52,7,7,0,0,1,5.89-.6v4.44a9.25,9.25,0,0,0-3.08-.62,4.55,4.55,0,0,0-2.63.78,5.37,5.37,0,0,0-1.82,2.09,6.24,6.24,0,0,0-.66,2.86V80.26h-4.29Z" transform="translate(0 -4.91)"></path><path class="cls-1" d="M186.74,79.5a9.72,9.72,0,0,1-3.7-3.8,11.57,11.57,0,0,1,0-10.77,9.79,9.79,0,0,1,3.7-3.8,11.13,11.13,0,0,1,10.77,0,9.91,9.91,0,0,1,3.7,3.82,11.49,11.49,0,0,1,0,10.73,9.72,9.72,0,0,1-3.7,3.8,11.13,11.13,0,0,1-10.77,0Zm8.43-3.35a6,6,0,0,0,2.24-2.3,7.12,7.12,0,0,0,.84-3.53,7,7,0,0,0-.84-3.51,5.92,5.92,0,0,0-2.24-2.28,6.2,6.2,0,0,0-6.09,0,5.92,5.92,0,0,0-2.24,2.28,7,7,0,0,0-.84,3.51,7.12,7.12,0,0,0,.84,3.53,6,6,0,0,0,2.24,2.3,6.2,6.2,0,0,0,6.09,0Z" transform="translate(0 -4.91)"></path><path class="cls-1" d="M210.36,79.52a9.48,9.48,0,0,1-3.67-3.76,12,12,0,0,1,0-10.88,9.51,9.51,0,0,1,3.67-3.77,10.43,10.43,0,0,1,5.32-1.36,10.08,10.08,0,0,1,5.58,1.48,8.17,8.17,0,0,1,3.27,4l-3.93,1.63a5,5,0,0,0-5-3.15,5.62,5.62,0,0,0-2.95.81,5.82,5.82,0,0,0-2.14,2.33,7.14,7.14,0,0,0-.8,3.45,7.28,7.28,0,0,0,.8,3.47,5.85,5.85,0,0,0,2.14,2.34,5.63,5.63,0,0,0,2.95.82,5.93,5.93,0,0,0,3.21-.84,5.32,5.32,0,0,0,2.05-2.4l3.86,1.68a9,9,0,0,1-3.43,4,10.08,10.08,0,0,1-5.58,1.49A10.43,10.43,0,0,1,210.36,79.52Z" transform="translate(0 -4.91)"></path><path class="cls-1" d="M231.05,68.87l-2,1.41-2.19-2.85,4.14-3v-12h4.29v9.08L238,59.51l2.18,2.89-4.79,3.51V80.26h-4.29Z" transform="translate(0 -4.91)"></path><path class="cls-1" d="M246.14,80.05a6.21,6.21,0,0,1-2.61-2.38,6.54,6.54,0,0,1-.94-3.49,5.83,5.83,0,0,1,2.32-4.88,9.35,9.35,0,0,1,5.87-1.79,13.88,13.88,0,0,1,3.16.33,11.12,11.12,0,0,1,2.22.72v-1a3.73,3.73,0,0,0-1.36-3,5.3,5.3,0,0,0-3.51-1.15,6.31,6.31,0,0,0-2.87.67,5.59,5.59,0,0,0-2.16,1.83l-3-2.3a9,9,0,0,1,3.44-2.85,10.7,10.7,0,0,1,4.68-1c2.88,0,5.11.71,6.66,2.12a7.67,7.67,0,0,1,2.35,6v12.4h-4.22V77.88H256A6.69,6.69,0,0,1,253.55,80a7.36,7.36,0,0,1-3.59.86A8.42,8.42,0,0,1,246.14,80.05Zm7.37-3.45a5.41,5.41,0,0,0,2.65-4.68,8.21,8.21,0,0,0-2.08-.82,9.69,9.69,0,0,0-2.48-.31,5.44,5.44,0,0,0-3.55.95,3.1,3.1,0,0,0-1.13,2.48A2.79,2.79,0,0,0,248,76.46a4.16,4.16,0,0,0,2.73.88A5.43,5.43,0,0,0,253.51,76.6Z" transform="translate(0 -4.91)"></path><path class="cls-1" d="M262.44,60.37h4.64l4,14.24h.16l4.48-14.24h4.41l4.44,14.24h.16l4-14.24h4.56L287,80.26h-4.52L277.89,66h-.12l-4.52,14.27H268.8Z" transform="translate(0 -4.91)"></path><path class="cls-1" d="M304.6,76.21l4.92-4.94c2.44-2.45,4.06-4.13,4.87-5a15.83,15.83,0,0,0,2.24-2.85,5.22,5.22,0,0,0,.61-2.61,3.57,3.57,0,0,0-1.17-2.65A4.34,4.34,0,0,0,312.91,57a4.25,4.25,0,0,0-3,1.07,5.11,5.11,0,0,0-1.5,2.48l-3.9-1.6A7.86,7.86,0,0,1,306,56.2a8.61,8.61,0,0,1,2.86-2.3A8.77,8.77,0,0,1,313,53a9.51,9.51,0,0,1,4.5,1,7.5,7.5,0,0,1,3,2.8,7.41,7.41,0,0,1,1.08,3.92,9,9,0,0,1-1.19,4.43,18.29,18.29,0,0,1-3,4q-.78.73-3.94,3.9l-3.19,3.2.07.15H322v3.9H304.6Z" transform="translate(0 -4.91)"></path><path class="cls-1" d="M331,79a11.87,11.87,0,0,1-3.84-5,19.45,19.45,0,0,1,0-14.19,11.84,11.84,0,0,1,3.84-5A9.53,9.53,0,0,1,336.82,53a9.42,9.42,0,0,1,5.75,1.83,11.88,11.88,0,0,1,3.82,5,19.45,19.45,0,0,1,0,14.19,11.87,11.87,0,0,1-3.84,5A9.83,9.83,0,0,1,331,79Zm9.27-3.51a8.3,8.3,0,0,0,2.3-3.55,15,15,0,0,0,.8-5,15.24,15.24,0,0,0-.8-5.07,8.24,8.24,0,0,0-2.3-3.55A5.26,5.26,0,0,0,336.82,57a5.18,5.18,0,0,0-3.51,1.28A8.32,8.32,0,0,0,331,61.85a15.24,15.24,0,0,0-.8,5.07,15,15,0,0,0,.8,5,8.38,8.38,0,0,0,2.29,3.55,5.11,5.11,0,0,0,3.51,1.31A5.19,5.19,0,0,0,340.31,75.52Z" transform="translate(0 -4.91)"></path><path class="cls-1" d="M357.68,59.4l-4.37,3.16-2.18-3.32L359,53.59h3V80.26h-4.29Z" transform="translate(0 -4.91)"></path><path class="cls-1" d="M372.11,78.62l6.08-8.46L378,70a5.12,5.12,0,0,1-2.65.63,7.55,7.55,0,0,1-3.92-1.13,9,9,0,0,1-3.09-3.1,8.76,8.76,0,0,1,.08-9,9.38,9.38,0,0,1,3.4-3.28A9.14,9.14,0,0,1,376.44,53a9.34,9.34,0,0,1,4.87,1.27,8.87,8.87,0,0,1,3.32,3.37,9.12,9.12,0,0,1,1.17,4.49,10.73,10.73,0,0,1-.9,4.35,29.84,29.84,0,0,1-2.65,4.62L375.5,81ZM379,66.28a5,5,0,0,0,1.88-1.79,4.9,4.9,0,0,0,.7-2.56A4.88,4.88,0,0,0,379,57.62a5.14,5.14,0,0,0-2.53-.64,5.08,5.08,0,0,0-2.5.64,5,5,0,0,0-1.83,6.87A5,5,0,0,0,374,66.28a5,5,0,0,0,2.48.64A5.07,5.07,0,0,0,379,66.28Z" transform="translate(0 -4.91)"></path></g></g></svg>